<svg width="44" height="44" viewBox="0 0 44 44" fill="none" xmlns="http://www.w3.org/2000/svg">
<circle cx="22" cy="22" r="22" fill="#EAF4FF"/>
<path d="M29.9369 27.0085C29.5602 27.075 29.2641 27.0363 29.0487 26.8924C28.8319 26.7406 28.7058 26.5645 28.6705 26.3642C28.6394 26.1878 28.6766 26.0243 28.7823 25.8734C28.8865 25.7146 29.0668 25.6125 29.3233 25.5673C29.4836 25.539 29.6552 25.5047 29.8381 25.4641C30.029 25.4222 30.2079 25.3824 30.3748 25.3447C30.5403 25.299 30.6857 25.2568 30.8111 25.2182C30.9431 25.1701 31.0303 25.1258 31.0728 25.0853L32.4922 23.8558C32.5799 23.7907 32.6638 23.7511 32.7439 23.737C32.8321 23.7215 32.9059 23.7415 32.9653 23.7972C33.0232 23.8448 33.06 23.9127 33.0755 24.0008C33.101 24.1451 33.0762 24.2858 33.0012 24.423C32.9329 24.5507 32.8171 24.6909 32.654 24.8437C32.4908 24.9964 32.2864 25.1729 32.0408 25.3732C31.8032 25.5721 31.5271 25.8109 31.2127 26.0894C31.232 26.1521 31.2466 26.2115 31.2565 26.2676C31.2664 26.3237 31.2763 26.3798 31.2861 26.4359C31.4798 27.5339 31.4525 28.551 31.2044 29.4872C30.9643 30.422 30.5656 31.2774 30.0083 32.0532C29.4524 32.8371 28.7706 33.5399 27.963 34.1616C27.1633 34.7819 26.3001 35.3225 25.3732 35.7834C24.4557 36.251 23.5081 36.6412 22.5304 36.9541C21.5526 37.2669 20.6069 37.5039 19.6932 37.665C18.6113 37.8558 17.6022 37.8974 16.666 37.7898C15.7312 37.6902 14.8694 37.4661 14.0808 37.1176C13.3016 36.7757 12.5943 36.3261 11.9589 35.7688C11.3329 35.2181 10.7798 34.5885 10.2995 33.8799C9.82863 33.1778 9.43746 32.4122 9.12596 31.5829C8.80645 30.7551 8.56756 29.8923 8.40929 28.9947C8.22558 27.9528 8.15407 26.8912 8.19476 25.8097C8.22603 24.7217 8.36925 23.6594 8.62444 22.6227C8.88764 21.5847 9.26232 20.5931 9.74849 19.648C10.2347 18.7029 10.8368 17.853 11.5549 17.0983C12.2715 16.3357 13.1037 15.689 14.0513 15.1583C15.007 14.6262 16.0819 14.2548 17.276 14.0443C17.7088 13.968 18.1203 13.9119 18.5107 13.8762C18.8996 13.8324 19.2713 13.8081 19.6258 13.8035C19.8815 12.8164 20.2064 11.8707 20.6007 10.9666C21.0015 10.053 21.4648 9.23589 21.9905 8.51516C22.5243 7.79301 23.1247 7.19132 23.7919 6.71009C24.4576 6.22085 25.1912 5.90557 25.9926 5.76425C26.5696 5.66251 27.0564 5.70477 27.4528 5.89103C27.8492 6.0773 28.1837 6.35714 28.4561 6.73054C28.6853 6.20258 28.9194 5.70267 29.1585 5.23081C29.3976 4.75895 29.6171 4.34012 29.817 3.97432C30.017 3.60853 30.1921 3.3132 30.3425 3.08836C30.493 2.86351 30.5941 2.73412 30.646 2.70018C30.7134 2.7544 30.7942 2.81452 30.8885 2.88053C30.9908 2.94513 31.0898 3.01445 31.1855 3.08847C31.2811 3.1625 31.3695 3.24195 31.4506 3.32681C31.5383 3.40225 31.6012 3.47793 31.6394 3.55383C31.5432 3.71127 31.4008 3.93471 31.2122 4.22413C31.0236 4.51356 30.8107 4.85272 30.5735 5.24161C30.3349 5.62249 30.0819 6.03896 29.8146 6.49101C29.5472 6.94307 29.2907 7.40974 29.045 7.89103C29.1096 8.06971 29.1628 8.25451 29.2047 8.44545C29.2547 8.63497 29.2966 8.8259 29.3305 9.01824C29.4224 9.53918 29.4671 10.0973 29.4646 10.6928C29.4608 11.2801 29.4098 11.8345 29.3117 12.3559C29.2135 12.8773 29.0645 13.3209 28.8646 13.6867C28.6632 14.0445 28.4103 14.2502 28.1057 14.3039C27.9454 14.3322 27.7981 14.3168 27.6638 14.2579C27.5374 14.1975 27.4262 14.1056 27.3301 13.982C27.2339 13.8585 27.1502 13.7121 27.0791 13.5429C27.0145 13.3642 26.9639 13.1707 26.9271 12.9623C26.872 12.6497 26.8593 12.2966 26.8891 11.903C26.9269 11.508 26.9932 11.0872 27.088 10.6408C27.1894 10.185 27.3207 9.71143 27.482 9.22023C27.6499 8.7196 27.8372 8.21143 28.0437 7.69572C27.8481 7.38314 27.587 7.14409 27.2603 6.97858C26.9402 6.80364 26.5278 6.76068 26.0228 6.84971C25.4218 6.9557 24.8744 7.22574 24.3808 7.65986C23.8951 8.09255 23.4581 8.63652 23.0695 9.29174C22.6876 9.93754 22.3532 10.6658 22.0665 11.4766C21.7783 12.2794 21.5352 13.1032 21.3371 13.948C22.4524 14.181 23.3471 14.7091 24.0212 15.5323C24.7032 16.3541 25.1792 17.5304 25.4491 19.0611C25.5211 19.4699 25.576 19.8982 25.6137 20.346C25.6579 20.7844 25.6911 21.2538 25.7132 21.7539C25.7902 23.9715 25.5941 25.6712 25.1248 26.853C24.6556 28.0348 23.9722 28.7048 23.0746 28.8631C22.6418 28.9394 22.2277 28.8637 21.8322 28.6359C21.4367 28.4082 21.0728 28.055 20.7405 27.5765C20.4068 27.0899 20.1108 26.4893 19.8526 25.7746C19.5943 25.0599 19.3854 24.2497 19.2257 23.3441C19.1197 22.743 19.0375 22.1129 18.9792 21.4539C18.9274 20.7854 18.9049 20.0952 18.9116 19.3834C18.9169 18.6635 18.9568 17.9293 19.0314 17.1807C19.106 16.4321 19.2239 15.6717 19.3853 14.8995C19.0737 14.9131 18.7521 14.9409 18.4207 14.9828C18.0959 15.0153 17.7612 15.0619 17.4166 15.1227C16.6151 15.264 15.9014 15.551 15.2753 15.9837C14.6572 16.4149 14.1197 16.9518 13.6628 17.5943C13.2059 18.2368 12.8307 18.9682 12.5374 19.7884C12.2507 20.5992 12.0386 21.4588 11.9013 22.3672C11.764 23.2756 11.7059 24.2114 11.727 25.1745C11.7467 26.1296 11.8392 27.076 12.0045 28.0137C12.1515 28.8472 12.3524 29.6588 12.6073 30.4484C12.8689 31.2287 13.1834 31.9583 13.5511 32.6372C13.9187 33.3161 14.3365 33.9283 14.8046 34.4738C15.2806 35.0179 15.8019 35.4672 16.3685 35.8218C16.9366 36.1844 17.551 36.4355 18.2119 36.5751C18.8729 36.7148 19.58 36.7182 20.3333 36.5853C20.9665 36.4737 21.6338 36.2982 22.3353 36.0588C23.0382 35.8274 23.7365 35.5225 24.43 35.1441C25.1235 34.7656 25.7996 34.3117 26.4582 33.7824C27.1169 33.2531 27.7152 32.6394 28.2532 31.9413C28.8006 31.2498 29.2695 30.4647 29.66 29.586C30.0599 28.7139 30.3478 27.7459 30.5238 26.6819C30.4361 26.747 30.3484 26.812 30.2607 26.8771C30.173 26.9421 30.0651 26.9859 29.9369 27.0085ZM25.0951 21.7638C25.082 21.3612 25.0563 20.9814 25.0182 20.6245C24.9787 20.2597 24.9306 19.9169 24.8741 19.5964C24.7455 18.867 24.5643 18.2379 24.3306 17.7089C24.1034 17.1705 23.8296 16.7189 23.5091 16.354C23.1966 15.9876 22.8353 15.696 22.4252 15.4791C22.0231 15.2608 21.5821 15.103 21.1022 15.0058C20.9083 16.0151 20.7728 16.981 20.6959 17.9036C20.6255 18.8167 20.6021 19.5976 20.6255 20.2463C20.6519 20.911 20.6963 21.5849 20.7589 22.268C20.8201 22.9431 20.9079 23.6053 21.0224 24.2544C21.1185 24.7994 21.2337 25.3121 21.368 25.7925C21.5008 26.2649 21.6512 26.6722 21.819 27.0145C21.9947 27.3553 22.1852 27.6151 22.3902 27.7938C22.6033 27.9711 22.838 28.0371 23.0945 27.9919C23.359 27.9453 23.6185 27.8004 23.8731 27.5571C24.1277 27.3139 24.3524 26.9479 24.5472 26.459C24.7405 25.9622 24.8898 25.3326 24.995 24.5704C25.0989 23.8001 25.1322 22.8645 25.0951 21.7638ZM28.7229 10.5632C28.7144 10.3747 28.6984 10.1668 28.6749 9.93955C28.6579 9.70289 28.6283 9.46435 28.5859 9.22392L28.5392 8.95944C28.1983 9.69717 27.9427 10.4033 27.7724 11.0779C27.6087 11.7431 27.5714 12.3281 27.6604 12.833C27.6929 13.0173 27.7438 13.1654 27.8131 13.2771C27.8824 13.3888 27.9731 13.4348 28.0854 13.415C28.2136 13.3924 28.3204 13.2951 28.4057 13.123C28.4911 12.951 28.5599 12.7322 28.6123 12.4668C28.6647 12.2014 28.6986 11.9021 28.7142 11.5688C28.7299 11.2355 28.7327 10.9003 28.7229 10.5632Z" fill="black"/>
</svg>
