<svg width="52" height="52" viewBox="0 0 52 52" fill="none" xmlns="http://www.w3.org/2000/svg">
<g filter="url(#filter0_d)">
<circle cx="25" cy="24" r="22" fill="#EAF4FF"/>
<path d="M32.9369 29.0085C32.5602 29.075 32.2641 29.0363 32.0487 28.8924C31.8319 28.7406 31.7058 28.5645 31.6705 28.3642C31.6394 28.1878 31.6766 28.0243 31.7823 27.8734C31.8865 27.7146 32.0668 27.6125 32.3233 27.5673C32.4836 27.539 32.6552 27.5047 32.8381 27.4641C33.029 27.4222 33.2079 27.3824 33.3748 27.3447C33.5403 27.299 33.6857 27.2568 33.8111 27.2182C33.9431 27.1701 34.0303 27.1258 34.0728 27.0853L35.4922 25.8558C35.5799 25.7907 35.6638 25.7511 35.7439 25.737C35.8321 25.7215 35.9059 25.7415 35.9653 25.7972C36.0232 25.8448 36.06 25.9127 36.0755 26.0008C36.101 26.1451 36.0762 26.2858 36.0012 26.423C35.9329 26.5507 35.8171 26.6909 35.654 26.8437C35.4908 26.9964 35.2864 27.1729 35.0408 27.3732C34.8032 27.5721 34.5271 27.8109 34.2127 28.0894C34.232 28.1521 34.2466 28.2115 34.2565 28.2676C34.2664 28.3237 34.2763 28.3798 34.2861 28.4359C34.4798 29.5339 34.4525 30.551 34.2044 31.4872C33.9643 32.422 33.5656 33.2774 33.0083 34.0532C32.4524 34.8371 31.7706 35.5399 30.963 36.1616C30.1633 36.7819 29.3001 37.3225 28.3732 37.7834C27.4557 38.251 26.5081 38.6412 25.5304 38.9541C24.5526 39.2669 23.6069 39.5039 22.6932 39.665C21.6113 39.8558 20.6022 39.8974 19.666 39.7898C18.7312 39.6902 17.8694 39.4661 17.0808 39.1176C16.3016 38.7757 15.5943 38.3261 14.9589 37.7688C14.3329 37.2181 13.7798 36.5885 13.2995 35.8799C12.8286 35.1778 12.4375 34.4122 12.126 33.5829C11.8065 32.7551 11.5676 31.8923 11.4093 30.9947C11.2256 29.9528 11.1541 28.8912 11.1948 27.8097C11.226 26.7217 11.3693 25.6594 11.6244 24.6227C11.8876 23.5847 12.2623 22.5931 12.7485 21.648C13.2347 20.7029 13.8368 19.853 14.5549 19.0983C15.2715 18.3357 16.1037 17.689 17.0513 17.1583C18.007 16.6262 19.0819 16.2548 20.276 16.0443C20.7088 15.968 21.1203 15.9119 21.5107 15.8762C21.8996 15.8324 22.2713 15.8081 22.6258 15.8035C22.8815 14.8164 23.2064 13.8707 23.6007 12.9666C24.0015 12.053 24.4648 11.2359 24.9905 10.5152C25.5243 9.79301 26.1247 9.19132 26.7919 8.71009C27.4576 8.22085 28.1912 7.90557 28.9926 7.76425C29.5696 7.66251 30.0564 7.70477 30.4528 7.89103C30.8492 8.0773 31.1837 8.35714 31.4561 8.73054C31.6853 8.20258 31.9194 7.70267 32.1585 7.23081C32.3976 6.75895 32.6171 6.34012 32.817 5.97432C33.017 5.60853 33.1921 5.3132 33.3425 5.08836C33.493 4.86351 33.5941 4.73412 33.646 4.70018C33.7134 4.7544 33.7942 4.81452 33.8885 4.88053C33.9908 4.94513 34.0898 5.01445 34.1855 5.08847C34.2811 5.1625 34.3695 5.24195 34.4506 5.32681C34.5383 5.40225 34.6012 5.47793 34.6394 5.55383C34.5432 5.71127 34.4008 5.93471 34.2122 6.22413C34.0236 6.51356 33.8107 6.85272 33.5735 7.24161C33.3349 7.62249 33.0819 8.03896 32.8146 8.49101C32.5472 8.94307 32.2907 9.40974 32.045 9.89103C32.1096 10.0697 32.1628 10.2545 32.2047 10.4454C32.2547 10.635 32.2966 10.8259 32.3305 11.0182C32.4224 11.5392 32.4671 12.0973 32.4646 12.6928C32.4608 13.2801 32.4098 13.8345 32.3117 14.3559C32.2135 14.8773 32.0645 15.3209 31.8646 15.6867C31.6632 16.0445 31.4103 16.2502 31.1057 16.3039C30.9454 16.3322 30.7981 16.3168 30.6638 16.2579C30.5374 16.1975 30.4262 16.1056 30.3301 15.982C30.2339 15.8585 30.1502 15.7121 30.0791 15.5429C30.0145 15.3642 29.9639 15.1707 29.9271 14.9623C29.872 14.6497 29.8593 14.2966 29.8891 13.903C29.9269 13.508 29.9932 13.0872 30.088 12.6408C30.1894 12.185 30.3207 11.7114 30.482 11.2202C30.6499 10.7196 30.8372 10.2114 31.0437 9.69572C30.8481 9.38314 30.587 9.14409 30.2603 8.97858C29.9402 8.80364 29.5278 8.76068 29.0228 8.84971C28.4218 8.9557 27.8744 9.22574 27.3808 9.65986C26.8951 10.0926 26.4581 10.6365 26.0695 11.2917C25.6876 11.9375 25.3532 12.6658 25.0665 13.4766C24.7783 14.2794 24.5352 15.1032 24.3371 15.948C25.4524 16.181 26.3471 16.7091 27.0212 17.5323C27.7032 18.3541 28.1792 19.5304 28.4491 21.0611C28.5211 21.4699 28.576 21.8982 28.6137 22.346C28.6579 22.7844 28.6911 23.2538 28.7132 23.7539C28.7902 25.9715 28.5941 27.6712 28.1248 28.853C27.6556 30.0348 26.9722 30.7048 26.0746 30.8631C25.6418 30.9394 25.2277 30.8637 24.8322 30.6359C24.4367 30.4082 24.0728 30.055 23.7405 29.5765C23.4068 29.0899 23.1108 28.4893 22.8526 27.7746C22.5943 27.0599 22.3854 26.2497 22.2257 25.3441C22.1197 24.743 22.0375 24.1129 21.9792 23.4539C21.9274 22.7854 21.9049 22.0952 21.9116 21.3834C21.9169 20.6635 21.9568 19.9293 22.0314 19.1807C22.106 18.4321 22.2239 17.6717 22.3853 16.8995C22.0737 16.9131 21.7521 16.9409 21.4207 16.9828C21.0959 17.0153 20.7612 17.0619 20.4166 17.1227C19.6151 17.264 18.9014 17.551 18.2753 17.9837C17.6572 18.4149 17.1197 18.9518 16.6628 19.5943C16.2059 20.2368 15.8307 20.9682 15.5374 21.7884C15.2507 22.5992 15.0386 23.4588 14.9013 24.3672C14.764 25.2756 14.7059 26.2114 14.727 27.1745C14.7467 28.1296 14.8392 29.076 15.0045 30.0137C15.1515 30.8472 15.3524 31.6588 15.6073 32.4484C15.8689 33.2287 16.1834 33.9583 16.5511 34.6372C16.9187 35.3161 17.3365 35.9283 17.8046 36.4738C18.2806 37.0179 18.8019 37.4672 19.3685 37.8218C19.9366 38.1844 20.551 38.4355 21.2119 38.5751C21.8729 38.7148 22.58 38.7182 23.3333 38.5853C23.9665 38.4737 24.6338 38.2982 25.3353 38.0588C26.0382 37.8274 26.7365 37.5225 27.43 37.1441C28.1235 36.7656 28.7996 36.3117 29.4582 35.7824C30.1169 35.2531 30.7152 34.6394 31.2532 33.9413C31.8006 33.2498 32.2695 32.4647 32.66 31.586C33.0599 30.7139 33.3478 29.7459 33.5238 28.6819C33.4361 28.747 33.3484 28.812 33.2607 28.8771C33.173 28.9421 33.0651 28.9859 32.9369 29.0085ZM28.0951 23.7638C28.082 23.3612 28.0563 22.9814 28.0182 22.6245C27.9787 22.2597 27.9306 21.9169 27.8741 21.5964C27.7455 20.867 27.5643 20.2379 27.3306 19.7089C27.1034 19.1705 26.8296 18.7189 26.5091 18.354C26.1966 17.9876 25.8353 17.696 25.4252 17.4791C25.0231 17.2608 24.5821 17.103 24.1022 17.0058C23.9083 18.0151 23.7728 18.981 23.6959 19.9036C23.6255 20.8167 23.6021 21.5976 23.6255 22.2463C23.6519 22.911 23.6963 23.5849 23.7589 24.268C23.8201 24.9431 23.9079 25.6053 24.0224 26.2544C24.1185 26.7994 24.2337 27.3121 24.368 27.7925C24.5008 28.2649 24.6512 28.6722 24.819 29.0145C24.9947 29.3553 25.1852 29.6151 25.3902 29.7938C25.6033 29.9711 25.838 30.0371 26.0945 29.9919C26.359 29.9453 26.6185 29.8004 26.8731 29.5571C27.1277 29.3139 27.3524 28.9479 27.5472 28.459C27.7405 27.9622 27.8898 27.3326 27.995 26.5704C28.0989 25.8001 28.1322 24.8645 28.0951 23.7638ZM31.7229 12.5632C31.7144 12.3747 31.6984 12.1668 31.6749 11.9395C31.6579 11.7029 31.6283 11.4643 31.5859 11.2239L31.5392 10.9594C31.1983 11.6972 30.9427 12.4033 30.7724 13.0779C30.6087 13.7431 30.5714 14.3281 30.6604 14.833C30.6929 15.0173 30.7438 15.1654 30.8131 15.2771C30.8824 15.3888 30.9731 15.4348 31.0854 15.415C31.2136 15.3924 31.3204 15.2951 31.4057 15.123C31.4911 14.951 31.5599 14.7322 31.6123 14.4668C31.6647 14.2014 31.6986 13.9021 31.7142 13.5688C31.7299 13.2355 31.7327 12.9003 31.7229 12.5632Z" fill="black"/>
</g>
<defs>
<filter id="filter0_d" x="0" y="0" width="52" height="52" filterUnits="userSpaceOnUse" color-interpolation-filters="sRGB">
<feFlood flood-opacity="0" result="BackgroundImageFix"/>
<feColorMatrix in="SourceAlpha" type="matrix" values="0 0 0 0 0 0 0 0 0 0 0 0 0 0 0 0 0 0 127 0"/>
<feOffset dx="1" dy="2"/>
<feGaussianBlur stdDeviation="2"/>
<feColorMatrix type="matrix" values="0 0 0 0 0 0 0 0 0 0 0 0 0 0 0 0 0 0 0.15 0"/>
<feBlend mode="normal" in2="BackgroundImageFix" result="effect1_dropShadow"/>
<feBlend mode="normal" in="SourceGraphic" in2="effect1_dropShadow" result="shape"/>
</filter>
</defs>
</svg>
