<svg width="181" height="52" viewBox="0 0 181 52" fill="none" xmlns="http://www.w3.org/2000/svg">
<g filter="url(#filter0_d)">
<circle cx="25" cy="24" r="22" fill="#EAF4FF"/>
<path d="M32.9369 29.0086C32.5602 29.075 32.2641 29.0363 32.0487 28.8925C31.8319 28.7407 31.7058 28.5646 31.6705 28.3642C31.6394 28.1879 31.6766 28.0243 31.7823 27.8735C31.8865 27.7146 32.0668 27.6126 32.3233 27.5674C32.4836 27.5391 32.6552 27.5047 32.8381 27.4642C33.029 27.4223 33.2079 27.3825 33.3748 27.3448C33.5403 27.2991 33.6857 27.2569 33.8111 27.2183C33.9431 27.1702 34.0303 27.1259 34.0728 27.0853L35.4922 25.8558C35.5799 25.7908 35.6638 25.7512 35.7439 25.7371C35.8321 25.7215 35.9059 25.7416 35.9653 25.7972C36.0232 25.8448 36.06 25.9127 36.0755 26.0009C36.101 26.1451 36.0762 26.2859 36.0012 26.423C35.9329 26.5508 35.8171 26.691 35.654 26.8437C35.4908 26.9964 35.2864 27.173 35.0408 27.3733C34.8032 27.5722 34.5271 27.8109 34.2127 28.0895C34.232 28.1522 34.2466 28.2116 34.2565 28.2677C34.2664 28.3238 34.2763 28.3799 34.2861 28.436C34.4798 29.534 34.4525 30.5511 34.2044 31.4873C33.9643 32.4221 33.5656 33.2774 33.0083 34.0533C32.4524 34.8372 31.7706 35.54 30.963 36.1617C30.1633 36.782 29.3001 37.3226 28.3732 37.7835C27.4557 38.251 26.5081 38.6412 25.5304 38.9541C24.5526 39.267 23.6069 39.504 22.6932 39.6651C21.6113 39.8559 20.6022 39.8975 19.666 39.7898C18.7312 39.6902 17.8694 39.4662 17.0808 39.1177C16.3016 38.7758 15.5943 38.3262 14.9589 37.7689C14.3329 37.2182 13.7798 36.5885 13.2995 35.8799C12.8286 35.1779 12.4375 34.4123 12.126 33.583C11.8065 32.7551 11.5676 31.8924 11.4093 30.9948C11.2256 29.9529 11.1541 28.8912 11.1948 27.8098C11.226 26.7218 11.3693 25.6594 11.6244 24.6228C11.8876 23.5848 12.2623 22.5932 12.7485 21.648C13.2347 20.7029 13.8368 19.853 14.5549 19.0984C15.2715 18.3357 16.1037 17.689 17.0513 17.1583C18.007 16.6262 19.0819 16.2549 20.276 16.0444C20.7088 15.968 21.1203 15.912 21.5107 15.8762C21.8996 15.8324 22.2713 15.8082 22.6258 15.8035C22.8815 14.8164 23.2064 13.8708 23.6007 12.9667C24.0015 12.0531 24.4648 11.2359 24.9905 10.5152C25.5243 9.79307 26.1247 9.19138 26.7919 8.71015C27.4576 8.22091 28.1912 7.90563 28.9926 7.76431C29.5696 7.66257 30.0564 7.70483 30.4528 7.89109C30.8492 8.07736 31.1837 8.3572 31.4561 8.7306C31.6853 8.20264 31.9194 7.70273 32.1585 7.23087C32.3976 6.75901 32.6171 6.34018 32.817 5.97438C33.017 5.60859 33.1921 5.31326 33.3425 5.08842C33.493 4.86357 33.5941 4.73418 33.646 4.70024C33.7134 4.75446 33.7942 4.81458 33.8885 4.88059C33.9908 4.94519 34.0898 5.01451 34.1855 5.08853C34.2811 5.16256 34.3695 5.24201 34.4506 5.32688C34.5383 5.40231 34.6012 5.47799 34.6394 5.55389C34.5432 5.71133 34.4008 5.93477 34.2122 6.2242C34.0236 6.51362 33.8107 6.85278 33.5735 7.24167C33.3349 7.62255 33.0819 8.03902 32.8146 8.49107C32.5472 8.94313 32.2907 9.4098 32.045 9.89109C32.1096 10.0698 32.1628 10.2546 32.2047 10.4455C32.2547 10.635 32.2966 10.826 32.3305 11.0183C32.4224 11.5392 32.4671 12.0974 32.4646 12.6928C32.4608 13.2802 32.4098 13.8346 32.3117 14.356C32.2135 14.8774 32.0645 15.3209 31.8646 15.6867C31.6632 16.0445 31.4103 16.2503 31.1057 16.304C30.9454 16.3322 30.7981 16.3169 30.6638 16.2579C30.5374 16.1976 30.4262 16.1056 30.3301 15.9821C30.2339 15.8586 30.1502 15.7122 30.0791 15.5429C30.0145 15.3643 29.9639 15.1707 29.9271 14.9624C29.872 14.6498 29.8593 14.2967 29.8891 13.9031C29.9269 13.508 29.9932 13.0873 30.088 12.6409C30.1894 12.185 30.3207 11.7115 30.482 11.2203C30.6499 10.7197 30.8372 10.2115 31.0437 9.69578C30.8481 9.3832 30.587 9.14416 30.2603 8.97864C29.9402 8.8037 29.5278 8.76074 29.0228 8.84977C28.4218 8.95576 27.8744 9.22581 27.3808 9.65992C26.8951 10.0926 26.4581 10.6366 26.0695 11.2918C25.6876 11.9376 25.3532 12.6659 25.0665 13.4767C24.7783 14.2795 24.5352 15.1033 24.3371 15.948C25.4524 16.1811 26.3471 16.7092 27.0212 17.5324C27.7032 18.3542 28.1792 19.5304 28.4491 21.0612C28.5211 21.4699 28.576 21.8982 28.6137 22.3461C28.6579 22.7845 28.6911 23.2538 28.7132 23.754C28.7902 25.9716 28.5941 27.6713 28.1248 28.8531C27.6556 30.0349 26.9722 30.7049 26.0746 30.8632C25.6418 30.9395 25.2277 30.8637 24.8322 30.636C24.4367 30.4082 24.0728 30.0551 23.7405 29.5766C23.4068 29.09 23.1108 28.4894 22.8526 27.7747C22.5943 27.0599 22.3854 26.2498 22.2257 25.3441C22.1197 24.7431 22.0375 24.113 21.9792 23.4539C21.9274 22.7855 21.9049 22.0953 21.9116 21.3834C21.9169 20.6636 21.9568 19.9293 22.0314 19.1807C22.106 18.4321 22.2239 17.6717 22.3853 16.8996C22.0737 16.9132 21.7521 16.941 21.4207 16.9829C21.0959 17.0154 20.7612 17.062 20.4166 17.1228C19.6151 17.2641 18.9014 17.5511 18.2753 17.9837C17.6572 18.415 17.1197 18.9519 16.6628 19.5944C16.2059 20.2369 15.8307 20.9682 15.5374 21.7885C15.2507 22.5993 15.0386 23.4589 14.9013 24.3673C14.764 25.2757 14.7059 26.2115 14.727 27.1746C14.7467 28.1297 14.8392 29.0761 15.0045 30.0138C15.1515 30.8473 15.3524 31.6588 15.6073 32.4485C15.8689 33.2288 16.1834 33.9583 16.5511 34.6372C16.9187 35.3161 17.3365 35.9283 17.8046 36.4738C18.2806 37.0179 18.8019 37.4673 19.3685 37.8218C19.9366 38.1844 20.551 38.4356 21.2119 38.5752C21.8729 38.7148 22.58 38.7182 23.3333 38.5854C23.9665 38.4738 24.6338 38.2982 25.3353 38.0589C26.0382 37.8275 26.7365 37.5226 27.43 37.1441C28.1235 36.7657 28.7996 36.3118 29.4582 35.7825C30.1169 35.2531 30.7152 34.6394 31.2532 33.9413C31.8006 33.2498 32.2695 32.4647 32.66 31.5861C33.0599 30.714 33.3478 29.746 33.5238 28.682C33.4361 28.747 33.3484 28.8121 33.2607 28.8771C33.173 28.9422 33.0651 28.986 32.9369 29.0086ZM28.0951 23.7638C28.082 23.3612 28.0563 22.9815 28.0182 22.6246C27.9787 22.2597 27.9306 21.917 27.8741 21.5964C27.7455 20.8671 27.5643 20.238 27.3306 19.709C27.1034 19.1706 26.8296 18.7189 26.5091 18.354C26.1966 17.9877 25.8353 17.696 25.4252 17.4791C25.0231 17.2608 24.5821 17.1031 24.1022 17.0059C23.9083 18.0152 23.7728 18.9811 23.6959 19.9037C23.6255 20.8168 23.6021 21.5977 23.6255 22.2464C23.6519 22.9111 23.6963 23.585 23.7589 24.2681C23.8201 24.9432 23.9079 25.6053 24.0224 26.2545C24.1185 26.7995 24.2337 27.3121 24.368 27.7925C24.5008 28.2649 24.6512 28.6723 24.819 29.0145C24.9947 29.3554 25.1852 29.6152 25.3902 29.7939C25.6033 29.9712 25.838 30.0372 26.0945 29.992C26.359 29.9453 26.6185 29.8004 26.8731 29.5572C27.1277 29.314 27.3524 28.9479 27.5472 28.4591C27.7405 27.9623 27.8898 27.3327 27.995 26.5704C28.0989 25.8001 28.1322 24.8646 28.0951 23.7638ZM31.7229 12.5633C31.7144 12.3747 31.6984 12.1668 31.6749 11.9396C31.6579 11.703 31.6283 11.4644 31.5859 11.224L31.5392 10.9595C31.1983 11.6972 30.9427 12.4034 30.7724 13.078C30.6087 13.7431 30.5714 14.3282 30.6604 14.8331C30.6929 15.0174 30.7438 15.1654 30.8131 15.2772C30.8824 15.3889 30.9731 15.4349 31.0854 15.4151C31.2136 15.3925 31.3204 15.2951 31.4057 15.1231C31.4911 14.951 31.5599 14.7323 31.6123 14.4669C31.6647 14.2015 31.6986 13.9021 31.7142 13.5689C31.7299 13.2356 31.7327 12.9004 31.7229 12.5633Z" fill="black"/>
</g>
<g filter="url(#filter1_d)">
<path d="M66.8516 28.418C66.875 29.2461 66.7422 29.957 66.4531 30.5508C66.1641 31.1445 65.7695 31.6445 65.2695 32.0508C64.7773 32.4492 64.1992 32.7695 63.5352 33.0117C62.8789 33.2617 62.1875 33.4492 61.4609 33.5742C60.7422 33.707 60.0156 33.793 59.2812 33.832C58.5469 33.8711 57.8594 33.8906 57.2188 33.8906C56.5703 33.8906 55.8477 33.8711 55.0508 33.832C54.2617 33.8008 53.3945 33.7461 52.4492 33.668L51.9453 16.6055C52.7578 16.457 53.5469 16.3477 54.3125 16.2773C55.0781 16.1992 55.7617 16.1445 56.3633 16.1133C57.0664 16.082 57.7305 16.0703 58.3555 16.0781C58.9492 16.0938 59.5469 16.1289 60.1484 16.1836C60.75 16.2383 61.3242 16.332 61.8711 16.4648C62.4258 16.5898 62.9414 16.7656 63.418 16.9922C63.8945 17.2188 64.3086 17.5078 64.6602 17.8594C65.0117 18.2109 65.2891 18.6367 65.4922 19.1367C65.6953 19.6289 65.7969 20.2109 65.7969 20.8828C65.7969 21.7578 65.6367 22.5078 65.3164 23.1328C64.9961 23.75 64.5781 24.2617 64.0625 24.668C64.3906 24.7773 64.6836 24.9141 64.9414 25.0781C65.1992 25.2344 65.4219 25.4102 65.6094 25.6055C65.8047 25.8008 65.9688 26.0078 66.1016 26.2266C66.2422 26.4375 66.3594 26.6484 66.4531 26.8594C66.6641 27.3438 66.7969 27.8633 66.8516 28.418ZM58.4023 18.2109C58.0352 18.2109 57.6367 18.2227 57.207 18.2461C56.8398 18.2617 56.418 18.293 55.9414 18.3398C55.4727 18.3867 54.9727 18.4492 54.4414 18.5273L54.6289 24.5039C55.3008 24.4883 55.9102 24.4688 56.457 24.4453C57.0117 24.4141 57.4883 24.3867 57.8867 24.3633C58.3555 24.332 58.7734 24.3008 59.1406 24.2695C59.7188 24.2383 60.2695 24.1445 60.793 23.9883C61.3242 23.8242 61.7852 23.6016 62.1758 23.3203C62.5664 23.0391 62.8672 22.6953 63.0781 22.2891C63.2969 21.8828 63.3789 21.4141 63.3242 20.8828C63.2773 20.4922 63.168 20.1523 62.9961 19.8633C62.832 19.5664 62.6211 19.3164 62.3633 19.1133C62.1133 18.9023 61.8242 18.7344 61.4961 18.6094C61.1758 18.4766 60.8398 18.3789 60.4883 18.3164C60.1445 18.2461 59.793 18.207 59.4336 18.1992C59.0742 18.1836 58.7305 18.1875 58.4023 18.2109ZM60.6289 26.1562C60.4336 26.1719 60.2617 26.1875 60.1133 26.2031C59.9727 26.2109 59.8477 26.2188 59.7383 26.2266C59.6367 26.2344 59.543 26.2422 59.457 26.25C59.3789 26.2578 59.3047 26.2617 59.2344 26.2617C58.8047 26.3008 58.3438 26.3359 57.8516 26.3672C57.4297 26.3984 56.9453 26.4336 56.3984 26.4727C55.8516 26.5039 55.2852 26.5352 54.6992 26.5664L54.875 31.7578C55.0938 31.7734 55.3086 31.7812 55.5195 31.7812C55.7305 31.7812 55.9375 31.7812 56.1406 31.7812C56.5078 31.7812 56.9688 31.7812 57.5234 31.7812C58.0859 31.7734 58.6719 31.7461 59.2812 31.6992C59.8984 31.6445 60.5117 31.5547 61.1211 31.4297C61.7383 31.2969 62.2891 31.1094 62.7734 30.8672C63.2656 30.6172 63.6562 30.2969 63.9453 29.9062C64.2422 29.5156 64.3789 29.0273 64.3555 28.4414C64.2852 28.0195 64.1055 27.6406 63.8164 27.3047C63.6914 27.1641 63.5352 27.0234 63.3477 26.8828C63.168 26.7422 62.9492 26.6211 62.6914 26.5195C62.4336 26.4102 62.1328 26.3242 61.7891 26.2617C61.4531 26.1914 61.0664 26.1562 60.6289 26.1562ZM78.4883 33.8438L78.4414 30.4805C78.1836 30.9414 77.8906 31.3789 77.5625 31.793C77.2344 32.1992 76.8789 32.5586 76.4961 32.8711C76.1133 33.1758 75.7031 33.418 75.2656 33.5977C74.8359 33.7773 74.3828 33.8594 73.9062 33.8438C73.2031 33.8203 72.5977 33.6875 72.0898 33.4453C71.5898 33.2031 71.168 32.8828 70.8242 32.4844C70.4805 32.0781 70.2031 31.6133 69.9922 31.0898C69.7891 30.5586 69.6328 30 69.5234 29.4141C69.4141 28.8281 69.3398 28.2305 69.3008 27.6211C69.2695 27.0039 69.2539 26.4062 69.2539 25.8281C69.2539 25.0156 69.2891 24.1953 69.3594 23.3672C69.4297 22.5312 69.5312 21.6797 69.6641 20.8125L72.0664 20.8828C71.9414 21.8516 71.8555 22.7227 71.8086 23.4961C71.7695 24.2695 71.75 24.9492 71.75 25.5352C71.75 25.8008 71.7539 26.1367 71.7617 26.543C71.7695 26.9492 71.7969 27.3828 71.8438 27.8438C71.8984 28.2969 71.9805 28.7461 72.0898 29.1914C72.1992 29.6367 72.3516 30.0352 72.5469 30.3867C72.75 30.7305 73.0039 30.9961 73.3086 31.1836C73.6133 31.3711 73.9883 31.4336 74.4336 31.3711C75.0352 31.2852 75.6602 30.8711 76.3086 30.1289C76.9648 29.3867 77.6523 28.2461 78.3711 26.707C78.3477 25.4648 78.3242 24.4727 78.3008 23.7305C78.2852 22.9883 78.2734 22.4219 78.2656 22.0312C78.25 21.5703 78.2383 21.25 78.2305 21.0703L80.75 20.7891C80.7969 22.1328 80.8359 23.3477 80.8672 24.4336C80.9062 25.5117 80.9414 26.4844 80.9727 27.3516C81.0039 28.2109 81.0273 28.9688 81.043 29.625C81.0664 30.2734 81.0859 30.8359 81.1016 31.3125C81.1328 32.4297 81.1523 33.2578 81.1602 33.7969L78.4883 33.8438ZM96.8516 16.1953L96.8047 33.4805H94.4023L94.4258 31.9922C94.1914 32.2109 93.9492 32.4023 93.6992 32.5664C93.457 32.7305 93.2109 32.875 92.9609 33C92.7188 33.1172 92.4805 33.2148 92.2461 33.293C92.0117 33.3789 91.7891 33.4492 91.5781 33.5039C91.0859 33.6289 90.5977 33.6992 90.1133 33.7148C89.207 33.7148 88.3633 33.5547 87.582 33.2344C86.8008 32.9219 86.1211 32.4727 85.543 31.8867C84.9648 31.293 84.5078 30.5742 84.1719 29.7305C83.8438 28.8867 83.6797 27.9375 83.6797 26.8828C83.6797 25.8203 83.8633 24.875 84.2305 24.0469C84.5977 23.2109 85.0781 22.5078 85.6719 21.9375C86.2734 21.3672 86.9492 20.9336 87.6992 20.6367C88.457 20.332 89.2188 20.1797 89.9844 20.1797C90.5078 20.1875 91.0391 20.2578 91.5781 20.3906C92.0391 20.5 92.5352 20.6836 93.0664 20.9414C93.5977 21.1914 94.0938 21.5547 94.5547 22.0312L94.6484 16.0312L96.8516 16.1953ZM90.1133 31.5586C90.5977 31.5586 91.0703 31.4805 91.5312 31.3242C91.9922 31.168 92.4141 30.9492 92.7969 30.668C93.1875 30.3789 93.5273 30.0352 93.8164 29.6367C94.1055 29.2383 94.3242 28.8008 94.4727 28.3242L94.4961 25.8281C94.3555 25.3281 94.1367 24.8711 93.8398 24.457C93.543 24.0352 93.1953 23.6758 92.7969 23.3789C92.3984 23.082 91.9609 22.8516 91.4844 22.6875C91.0156 22.5234 90.5352 22.4414 90.043 22.4414C89.4648 22.4414 88.9336 22.5625 88.4492 22.8047C87.9648 23.0391 87.5469 23.3633 87.1953 23.7773C86.8438 24.1914 86.5703 24.6797 86.375 25.2422C86.1797 25.8047 86.082 26.4141 86.082 27.0703C86.082 27.7266 86.1797 28.3281 86.375 28.875C86.5781 29.4219 86.8555 29.8945 87.207 30.293C87.5664 30.6914 87.9922 31.0039 88.4844 31.2305C88.9844 31.4492 89.5273 31.5586 90.1133 31.5586ZM112.742 20.0156L112.672 33.4805C112.664 33.9883 112.598 34.4922 112.473 34.9922C112.348 35.5 112.16 35.9883 111.91 36.457C111.668 36.9336 111.363 37.3789 110.996 37.793C110.637 38.2148 110.219 38.5859 109.742 38.9062C109.273 39.2344 108.746 39.5 108.16 39.7031C107.574 39.9141 106.934 40.0469 106.238 40.1016C105.293 40.1328 104.402 40.0352 103.566 39.8086C103.207 39.7148 102.84 39.5859 102.465 39.4219C102.098 39.2578 101.742 39.0469 101.398 38.7891C101.055 38.5391 100.738 38.2344 100.449 37.875C100.16 37.5234 99.9219 37.1055 99.7344 36.6211L101.996 35.6367C102.145 35.9727 102.324 36.2617 102.535 36.5039C102.746 36.7461 102.973 36.9492 103.215 37.1133C103.457 37.2773 103.703 37.4102 103.953 37.5117C104.211 37.6133 104.461 37.6875 104.703 37.7344C105.273 37.8594 105.875 37.8828 106.508 37.8047C107.055 37.6953 107.527 37.5273 107.926 37.3008C108.332 37.0742 108.676 36.8203 108.957 36.5391C109.238 36.2656 109.465 35.9727 109.637 35.6602C109.816 35.3555 109.957 35.0625 110.059 34.7812C110.16 34.5 110.227 34.2422 110.258 34.0078C110.297 33.7812 110.316 33.6055 110.316 33.4805V31.9453C109.848 32.3906 109.359 32.7344 108.852 32.9766C108.352 33.2109 107.887 33.3828 107.457 33.4922C106.957 33.625 106.465 33.6992 105.98 33.7148C105.074 33.7148 104.23 33.5547 103.449 33.2344C102.668 32.9219 101.988 32.4727 101.41 31.8867C100.832 31.293 100.375 30.5742 100.039 29.7305C99.7109 28.8867 99.5469 27.9375 99.5469 26.8828C99.5469 25.8203 99.7305 24.875 100.098 24.0469C100.465 23.2109 100.945 22.5078 101.539 21.9375C102.141 21.3672 102.816 20.9336 103.566 20.6367C104.324 20.332 105.086 20.1797 105.852 20.1797C106.383 20.2422 106.918 20.3594 107.457 20.5312C107.918 20.6797 108.414 20.8906 108.945 21.1641C109.477 21.4375 109.969 21.8086 110.422 22.2773L110.445 19.9453L112.742 20.0156ZM105.98 31.4648C106.496 31.4648 106.996 31.375 107.48 31.1953C107.965 31.0156 108.402 30.7656 108.793 30.4453C109.191 30.1172 109.527 29.7305 109.801 29.2852C110.074 28.832 110.262 28.3359 110.363 27.7969V26.2617C110.277 25.707 110.094 25.2031 109.812 24.75C109.531 24.2891 109.188 23.8945 108.781 23.5664C108.375 23.2383 107.922 22.9844 107.422 22.8047C106.93 22.625 106.426 22.5352 105.91 22.5352C105.348 22.5352 104.828 22.6523 104.352 22.8867C103.875 23.1133 103.465 23.4297 103.121 23.8359C102.785 24.2422 102.52 24.7227 102.324 25.2773C102.137 25.832 102.043 26.4297 102.043 27.0703C102.043 27.7109 102.141 28.3008 102.336 28.8398C102.531 29.3789 102.801 29.8438 103.145 30.2344C103.496 30.6172 103.91 30.918 104.387 31.1367C104.871 31.3555 105.402 31.4648 105.98 31.4648ZM121.801 31.9219C122.215 31.9219 122.625 31.8594 123.031 31.7344C123.438 31.6016 123.812 31.4141 124.156 31.1719C124.5 30.9219 124.797 30.6133 125.047 30.2461C125.305 29.8789 125.492 29.4531 125.609 28.9688L127.871 29.4258C127.652 30.1367 127.344 30.7812 126.945 31.3594C126.547 31.9375 126.082 32.4336 125.551 32.8477C125.02 33.2617 124.434 33.582 123.793 33.8086C123.16 34.0352 122.496 34.1484 121.801 34.1484C120.77 34.1484 119.855 33.9922 119.059 33.6797C118.262 33.3672 117.59 32.9258 117.043 32.3555C116.496 31.7852 116.078 31.0977 115.789 30.293C115.508 29.4883 115.367 28.5898 115.367 27.5977C115.367 26.6211 115.531 25.7109 115.859 24.8672C116.195 24.0156 116.652 23.2773 117.23 22.6523C117.809 22.0273 118.488 21.5352 119.27 21.1758C120.051 20.8164 120.895 20.6367 121.801 20.6367C122.613 20.6367 123.379 20.7969 124.098 21.1172C124.816 21.4297 125.453 21.8672 126.008 22.4297C126.562 22.9844 127.02 23.6406 127.379 24.3984C127.738 25.1562 127.965 25.9766 128.059 26.8594L117.91 28.3711C117.965 28.9258 118.102 29.4258 118.32 29.8711C118.539 30.3086 118.816 30.6797 119.152 30.9844C119.496 31.2891 119.891 31.5234 120.336 31.6875C120.789 31.8438 121.277 31.9219 121.801 31.9219ZM125.035 25.3477L124.965 25.125C124.668 24.3516 124.258 23.7461 123.734 23.3086C123.219 22.8711 122.574 22.6523 121.801 22.6523C121.473 22.6523 121.113 22.7109 120.723 22.8281C120.332 22.9375 119.953 23.1289 119.586 23.4023C119.219 23.6758 118.887 24.043 118.59 24.5039C118.301 24.957 118.098 25.5234 117.98 26.2031L125.035 25.3477ZM135.5 16.125L135.418 21.3633L139.965 21.2109L139.789 23.4023L135.395 23.5195L135.301 33.7383L132.828 33.7969L133.027 23.5898L128.973 23.6836L129.02 21.5273L133.074 21.4102L133.168 16.2773L135.5 16.125ZM144.969 17.3789C144.969 17.6055 144.922 17.8203 144.828 18.0234C144.742 18.2266 144.621 18.4023 144.465 18.5508C144.316 18.6992 144.141 18.8164 143.938 18.9023C143.734 18.9883 143.516 19.0312 143.281 19.0312C143.055 19.0312 142.84 18.9883 142.637 18.9023C142.441 18.8164 142.266 18.6992 142.109 18.5508C141.961 18.4023 141.844 18.2266 141.758 18.0234C141.672 17.8203 141.629 17.6055 141.629 17.3789C141.629 17.1445 141.672 16.9258 141.758 16.7227C141.844 16.5195 141.961 16.3438 142.109 16.1953C142.266 16.0391 142.441 15.918 142.637 15.832C142.84 15.7383 143.055 15.6914 143.281 15.6914C143.516 15.6914 143.734 15.7383 143.938 15.832C144.141 15.918 144.316 16.0391 144.465 16.1953C144.621 16.3438 144.742 16.5195 144.828 16.7227C144.922 16.9258 144.969 17.1445 144.969 17.3789ZM144.418 21.5039C144.395 22.6211 144.371 23.6484 144.348 24.5859C144.332 25.5156 144.316 26.3633 144.301 27.1289C144.285 27.8945 144.27 28.582 144.254 29.1914C144.246 29.793 144.238 30.3203 144.23 30.7734C144.207 31.8516 144.195 32.6992 144.195 33.3164H141.793C141.809 32.4727 141.828 31.4688 141.852 30.3047C141.867 29.3047 141.887 28.082 141.91 26.6367C141.941 25.1914 141.969 23.5117 141.992 21.5977L144.418 21.5039ZM148.133 33.8672C148.086 32.5234 148.043 31.3086 148.004 30.2227C147.965 29.1289 147.93 28.1523 147.898 27.293C147.867 26.4336 147.84 25.6758 147.816 25.0195C147.801 24.3633 147.785 23.7969 147.77 23.3203C147.738 22.2031 147.715 21.375 147.699 20.8359L150.371 20.7891L150.418 24.1641C150.676 23.7188 150.969 23.3008 151.297 22.9102C151.625 22.5117 151.98 22.1602 152.363 21.8555C152.746 21.5508 153.152 21.3047 153.582 21.1172C154.02 20.9297 154.477 20.8203 154.953 20.7891C155.547 20.75 156.062 20.8008 156.5 20.9414C156.945 21.082 157.324 21.2773 157.637 21.5273C157.949 21.7773 158.207 22.0742 158.41 22.418C158.613 22.7539 158.773 23.1055 158.891 23.4727C159.008 23.832 159.09 24.1914 159.137 24.5508C159.191 24.9102 159.227 25.2383 159.242 25.5352C159.289 26.8789 159.301 28.2305 159.277 29.5898C159.254 30.9492 159.227 32.3594 159.195 33.8203L156.793 33.7383C156.855 32.4805 156.91 31.2227 156.957 29.9648C157.012 28.707 157.008 27.4375 156.945 26.1562C156.945 26.0156 156.934 25.8359 156.91 25.6172C156.895 25.3906 156.852 25.1523 156.781 24.9023C156.719 24.6523 156.629 24.4062 156.512 24.1641C156.395 23.9141 156.242 23.6992 156.055 23.5195C155.867 23.332 155.637 23.1914 155.363 23.0977C155.098 23.0039 154.785 22.9844 154.426 23.0391C153.809 23.1328 153.18 23.5859 152.539 24.3984C151.906 25.2031 151.223 26.3828 150.488 27.9375C150.52 29.1953 150.543 30.1992 150.559 30.9492C150.582 31.6914 150.602 32.2539 150.617 32.6367C150.633 33.0898 150.645 33.3945 150.652 33.5508L148.133 33.8672ZM175.039 20.0156L174.969 33.4805C174.961 33.9883 174.895 34.4922 174.77 34.9922C174.645 35.5 174.457 35.9883 174.207 36.457C173.965 36.9336 173.66 37.3789 173.293 37.793C172.934 38.2148 172.516 38.5859 172.039 38.9062C171.57 39.2344 171.043 39.5 170.457 39.7031C169.871 39.9141 169.23 40.0469 168.535 40.1016C167.59 40.1328 166.699 40.0352 165.863 39.8086C165.504 39.7148 165.137 39.5859 164.762 39.4219C164.395 39.2578 164.039 39.0469 163.695 38.7891C163.352 38.5391 163.035 38.2344 162.746 37.875C162.457 37.5234 162.219 37.1055 162.031 36.6211L164.293 35.6367C164.441 35.9727 164.621 36.2617 164.832 36.5039C165.043 36.7461 165.27 36.9492 165.512 37.1133C165.754 37.2773 166 37.4102 166.25 37.5117C166.508 37.6133 166.758 37.6875 167 37.7344C167.57 37.8594 168.172 37.8828 168.805 37.8047C169.352 37.6953 169.824 37.5273 170.223 37.3008C170.629 37.0742 170.973 36.8203 171.254 36.5391C171.535 36.2656 171.762 35.9727 171.934 35.6602C172.113 35.3555 172.254 35.0625 172.355 34.7812C172.457 34.5 172.523 34.2422 172.555 34.0078C172.594 33.7812 172.613 33.6055 172.613 33.4805V31.9453C172.145 32.3906 171.656 32.7344 171.148 32.9766C170.648 33.2109 170.184 33.3828 169.754 33.4922C169.254 33.625 168.762 33.6992 168.277 33.7148C167.371 33.7148 166.527 33.5547 165.746 33.2344C164.965 32.9219 164.285 32.4727 163.707 31.8867C163.129 31.293 162.672 30.5742 162.336 29.7305C162.008 28.8867 161.844 27.9375 161.844 26.8828C161.844 25.8203 162.027 24.875 162.395 24.0469C162.762 23.2109 163.242 22.5078 163.836 21.9375C164.438 21.3672 165.113 20.9336 165.863 20.6367C166.621 20.332 167.383 20.1797 168.148 20.1797C168.68 20.2422 169.215 20.3594 169.754 20.5312C170.215 20.6797 170.711 20.8906 171.242 21.1641C171.773 21.4375 172.266 21.8086 172.719 22.2773L172.742 19.9453L175.039 20.0156ZM168.277 31.4648C168.793 31.4648 169.293 31.375 169.777 31.1953C170.262 31.0156 170.699 30.7656 171.09 30.4453C171.488 30.1172 171.824 29.7305 172.098 29.2852C172.371 28.832 172.559 28.3359 172.66 27.7969V26.2617C172.574 25.707 172.391 25.2031 172.109 24.75C171.828 24.2891 171.484 23.8945 171.078 23.5664C170.672 23.2383 170.219 22.9844 169.719 22.8047C169.227 22.625 168.723 22.5352 168.207 22.5352C167.645 22.5352 167.125 22.6523 166.648 22.8867C166.172 23.1133 165.762 23.4297 165.418 23.8359C165.082 24.2422 164.816 24.7227 164.621 25.2773C164.434 25.832 164.34 26.4297 164.34 27.0703C164.34 27.7109 164.438 28.3008 164.633 28.8398C164.828 29.3789 165.098 29.8438 165.441 30.2344C165.793 30.6172 166.207 30.918 166.684 31.1367C167.168 31.3555 167.699 31.4648 168.277 31.4648Z" fill="white"/>
</g>
<defs>
<filter id="filter0_d" x="0" y="0" width="52" height="52" filterUnits="userSpaceOnUse" color-interpolation-filters="sRGB">
<feFlood flood-opacity="0" result="BackgroundImageFix"/>
<feColorMatrix in="SourceAlpha" type="matrix" values="0 0 0 0 0 0 0 0 0 0 0 0 0 0 0 0 0 0 127 0"/>
<feOffset dx="1" dy="2"/>
<feGaussianBlur stdDeviation="2"/>
<feColorMatrix type="matrix" values="0 0 0 0 0 0 0 0 0 0 0 0 0 0 0 0 0 0 0.15 0"/>
<feBlend mode="normal" in2="BackgroundImageFix" result="effect1_dropShadow"/>
<feBlend mode="normal" in="SourceGraphic" in2="effect1_dropShadow" result="shape"/>
</filter>
<filter id="filter1_d" x="48.9453" y="14.6914" width="131.094" height="32.4158" filterUnits="userSpaceOnUse" color-interpolation-filters="sRGB">
<feFlood flood-opacity="0" result="BackgroundImageFix"/>
<feColorMatrix in="SourceAlpha" type="matrix" values="0 0 0 0 0 0 0 0 0 0 0 0 0 0 0 0 0 0 127 0"/>
<feOffset dx="1" dy="3"/>
<feGaussianBlur stdDeviation="2"/>
<feColorMatrix type="matrix" values="0 0 0 0 0 0 0 0 0 0 0 0 0 0 0 0 0 0 0.15 0"/>
<feBlend mode="normal" in2="BackgroundImageFix" result="effect1_dropShadow"/>
<feBlend mode="normal" in="SourceGraphic" in2="effect1_dropShadow" result="shape"/>
</filter>
</defs>
</svg>
